# xmcd
# 
# Track frame offsets:
#     150
#     16915
#     33602
#     53100
#     70670
#     85177
#     100627
#     115987
#     133677
#     150282
#     167945
#     185295
#     196932
#     213322
#     228412
#     246597
#     261590
#     277832
#     288957
#     304355
#     321355
# 
# Disc length: 4448
# 
# Revision: 2
# Processed by: cddbd v1.5.2PL0 Copyright (c) Steve Scherf et al.
# Submitted via: fre:ac v1.0.31
# 
DISCID=2b115e15
DTITLE=Frederic François - album d'or
DYEAR=1996
DGENRE=Pop
TTITLE0=tzigane
TTITLE1=quand vient le soir on se retrove
TTITLE2=fou d'elle
TTITLE3=les italo americains
TTITLE4=laisse-moi vivre ma vie
TTITLE5=cet amour la
TTITLE6=ilest trop tard
TTITLE7=si tu t'en vas
TTITLE8=l'amour c'est la musique
TTITLE9=o' sole mio
TTITLE10=santa lucia
TTITLE11=chigago
TTITLE12=y'a t'il quelqu'un
TTITLE13=fanny fanny
TTITLE14=mamma negra
TTITLE15=en plein soleil
TTITLE16=viens te perdre dans mes bras
TTITLE17=jolie milaty
TTITLE18=on comprend toujours quand c'est trop tard
TTITLE19=de venise a capri
TTITLE20=funiculi funicula
EXTD=
EXTT0=
EXTT1=
EXTT2=
EXTT3=
EXTT4=
EXTT5=
EXTT6=
EXTT7=
EXTT8=
EXTT9=
EXTT10=
EXTT11=
EXTT12=
EXTT13=
EXTT14=
EXTT15=
EXTT16=
EXTT17=
EXTT18=
EXTT19=
EXTT20=
PLAYORDER=
